<?xml version="1.0" encoding="utf-8"?>
<!-- Generator: Adobe Illustrator 25.4.1, SVG Export Plug-In . SVG Version: 6.00 Build 0)  -->
<svg version="1.1" id="Layer_1" xmlns="http://www.w3.org/2000/svg" xmlns:xlink="http://www.w3.org/1999/xlink" x="0px" y="0px"
	 viewBox="0 0 595.3 841.9" style="enable-background:new 0 0 595.3 841.9;" xml:space="preserve">
<style type="text/css">
	.st0{fill:#010202;}
	.st1{fill:#EF7743;}
</style>
<g>
	<path class="st0" d="M11.9,476.7V370.5h106.4v106.2H11.9z M83.4,444.3v-41.6H49.3l-2.5-16.6v73.1l2.5-15H83.4z"/>
	<path class="st1" d="M234.5,476.7H128.3V370.5h106.2V476.7z M146.2,402.7l19.4,2.5v36.6l-19.8,2.5h71.3l-19.9-2.5v-36.6l19.9-2.5
		H146.2z"/>
	<path class="st1" d="M350.8,476.7H244.6V370.5h106.2V476.7z M262.6,402.7l19.4,2.5v36.6l-19.8,2.5h71.3l-19.9-2.5v-36.6l19.9-2.5
		H262.6z"/>
	<path class="st0" d="M378.4,456.7l19.9,2.5v17.5H361V370.5h106.2v86.3h-16.5l16.3,19.9h-41.2l-12.5-17.5l18.4-2.5H378.4z
		 M378.3,402.7l20.1,2.5v17.5l-20.1,2.5h54.2v-22.4H378.3z"/>
	<path class="st0" d="M581.9,370.5v33.1h-67.3l-2.5-16.6v23.3h69.8v66.5H477.2v-33.1h67.1l2.5,16.5v-23.4h-69.6v-66.3H581.9z"/>
</g>
<g>
	<polygon class="st1" points="46.5,335.5 46.5,344.4 34.8,344.4 34.8,364.1 23.8,364.1 23.8,344.4 11.9,344.4 11.9,335.5 	"/>
	<path class="st1" d="M59.6,345.4h13.6v-10h11v28.7h-11v-10.2H59.6v10.2h-11v-28.7h11V345.4z"/>
	<path class="st1" d="M115,353.5H97.9v3l20.3-0.1v7.7H86.9v-28.7h31.4l0,7.7H97.9v2.7H115V353.5z"/>
</g>
</svg>
